<svg xmlns="http://www.w3.org/2000/svg" viewBox="0 0 64 64" width="64" height="64">
  <rect width="64" height="64" rx="12" fill="#0f172a"/>
  <g transform="translate(11 11)">
    <g transform="translate(2 18)">
      <polygon points="2,24 36,24 42,18 8,18" fill="#1e3a5f"/>
      <rect x="2" y="22" width="34" height="6" fill="#0f172a"/>
      <polygon points="2,16 36,16 42,10 8,10" fill="#fb923c"/>
      <rect x="2" y="14" width="34" height="6" fill="#f97316"/>
      <polygon points="2,8 36,8 42,2 8,2" fill="#1e3a5f"/>
      <rect x="2" y="6" width="34" height="6" fill="#0f172a"/>
    </g>
    <g transform="translate(12 0) rotate(-18)" fill="#f97316">
      <path d="M0 4 C0 1.8 1.8 0 4 0 L10 0 C12.2 0 14 1.8 14 4 L14 8 L11 8 L11 6 L9 6 L9 8 L5 8 L5 6 L3 6 L3 8 L0 8 Z"/>
      <rect x="5" y="8" width="4" height="14" rx="0.5"/>
    </g>
  </g>
</svg>
