<svg xmlns="http://www.w3.org/2000/svg" viewBox="0 0 260 60" width="260" height="60">
  <g transform="translate(8 8)">
    <g transform="translate(2 16)">
      <polygon points="2,24 38,24 44,18 8,18" fill="#1e3a5f"/>
      <rect x="2" y="22" width="36" height="6" fill="#0f172a"/>
      <polygon points="2,16 38,16 44,10 8,10" fill="#fb923c"/>
      <rect x="2" y="14" width="36" height="6" fill="#f97316"/>
      <polygon points="2,8 38,8 44,2 8,2" fill="#1e3a5f"/>
      <rect x="2" y="6" width="36" height="6" fill="#0f172a"/>
    </g>
    <g transform="translate(14 0) rotate(-18)" fill="#0f172a">
      <path d="M0 4 C0 1.8 1.8 0 4 0 L10 0 C12.2 0 14 1.8 14 4 L14 8 L11 8 L11 6 L9 6 L9 8 L5 8 L5 6 L3 6 L3 8 L0 8 Z"/>
      <rect x="5" y="8" width="4" height="14" rx="0.5"/>
    </g>
  </g>
  <text x="70" y="40" font-family="-apple-system, BlinkMacSystemFont, 'Inter', 'Segoe UI', system-ui, sans-serif" font-weight="800" font-size="28" letter-spacing="-0.5" fill="#0f172a">Wrench<tspan fill="#f97316">Stack</tspan></text>
</svg>
