<svg xmlns="http://www.w3.org/2000/svg" viewBox="0 0 1200 630" width="1200" height="630">
  <rect width="1200" height="630" fill="#0f172a"/>
  <rect x="0" y="0" width="1200" height="6" fill="#f97316"/>

  <g transform="translate(120 180)">
    <g transform="translate(0 80)">
      <polygon points="0,120 200,120 230,90 30,90" fill="#1e3a5f"/>
      <rect x="0" y="110" width="200" height="30" fill="#0f172a" stroke="#1e3a5f" stroke-width="2"/>
      <polygon points="0,80 200,80 230,50 30,50" fill="#fb923c"/>
      <rect x="0" y="70" width="200" height="30" fill="#f97316"/>
      <polygon points="0,40 200,40 230,10 30,10" fill="#1e3a5f"/>
      <rect x="0" y="30" width="200" height="30" fill="#0f172a" stroke="#1e3a5f" stroke-width="2"/>
    </g>
    <g transform="translate(65 -10) rotate(-20)" fill="#f97316">
      <path d="M0 20 C0 9 9 0 20 0 L50 0 C61 0 70 9 70 20 L70 40 L55 40 L55 30 L45 30 L45 40 L25 40 L25 30 L15 30 L15 40 L0 40 Z"/>
      <rect x="25" y="40" width="20" height="70" rx="2"/>
    </g>
  </g>

  <text x="450" y="290" font-family="-apple-system, BlinkMacSystemFont, 'Inter', sans-serif" font-weight="900" font-size="100" fill="#ffffff">Wrench<tspan fill="#f97316">Stack</tspan></text>

  <text x="450" y="360" font-family="-apple-system, sans-serif" font-weight="500" font-size="32" fill="#cbd5e1">Independent software comparisons</text>
  <text x="450" y="405" font-family="-apple-system, sans-serif" font-weight="500" font-size="32" fill="#cbd5e1">for trades and field-service businesses.</text>

  <g transform="translate(450 470)">
    <rect x="0" y="0" width="14" height="14" rx="2" fill="#f97316"/>
    <text x="26" y="13" font-family="sans-serif" font-weight="600" font-size="18" fill="#cbd5e1">40+ tools tracked</text>

    <rect x="200" y="0" width="14" height="14" rx="2" fill="#f97316"/>
    <text x="226" y="13" font-family="sans-serif" font-weight="600" font-size="18" fill="#cbd5e1">13 trades verticals</text>

    <rect x="420" y="0" width="14" height="14" rx="2" fill="#f97316"/>
    <text x="446" y="13" font-family="sans-serif" font-weight="600" font-size="18" fill="#cbd5e1">600+ comparison pages</text>
  </g>

  <text x="450" y="555" font-family="sans-serif" font-weight="500" font-size="22" fill="#94a3b8">wrenchstack.com</text>
</svg>
